<svg width="92" height="29" viewBox="0 0 92 29" fill="none" xmlns="http://www.w3.org/2000/svg">
<path d="M24.4553 7.17886L12.408 14.5138V29L7.47545 25.9981L0 13.2561V7.17886L12.2276 0L17.2413 2.93764L4.97762 10.1349V13.302L7.4484 17.433V11.6955L19.8113 4.44318L24.4643 7.17886H24.4553ZM14.8788 27.4945L24.4553 21.6926V10.447L14.8788 16.0652V27.4945Z" fill="white"/>
<path d="M37.2986 22.9194L32.2854 10.9975H36.2824L39.2633 19.821L38.3826 19.9333L41.4538 10.9975H45.4283L40.144 22.9194H37.2986Z" fill="white"/>
<path d="M53.3722 22.9194V15.6001C53.3722 14.9865 53.1991 14.5374 52.8528 14.253C52.5216 13.9537 52.0549 13.804 51.4527 13.804C50.8656 13.804 50.3387 13.9163 49.8719 14.1408C49.4203 14.3503 48.9837 14.7021 48.5622 15.196L46.3943 13.108C47.1169 12.3746 47.9449 11.7983 48.8783 11.3792C49.8117 10.9601 50.8279 10.7506 51.9269 10.7506C52.9356 10.7506 53.8088 10.9003 54.5465 11.1996C55.2842 11.499 55.8563 11.9555 56.2628 12.5692C56.6693 13.1828 56.8725 13.9612 56.8725 14.9041V22.9194H53.3722ZM50.2559 23.1439C49.5031 23.1439 48.8181 22.9942 48.2008 22.6948C47.5986 22.3955 47.1169 21.9839 46.7556 21.46C46.4093 20.9212 46.2362 20.2925 46.2362 19.5741C46.2362 18.9604 46.3491 18.4215 46.5749 17.9575C46.8007 17.4935 47.1319 17.1119 47.5685 16.8125C48.0202 16.4982 48.5772 16.2662 49.2396 16.1165C49.9171 15.9519 50.7 15.8695 51.5882 15.8695H55.224L55.0207 18.1372H51.6785C51.3624 18.1372 51.0839 18.1671 50.843 18.227C50.6021 18.2719 50.3989 18.3542 50.2333 18.4739C50.0677 18.5787 49.9397 18.7059 49.8494 18.8556C49.7741 19.0053 49.7365 19.1849 49.7365 19.3945C49.7365 19.619 49.7967 19.8135 49.9171 19.9782C50.0376 20.1428 50.1956 20.2701 50.3913 20.3599C50.6021 20.4497 50.843 20.4946 51.114 20.4946C51.5054 20.4946 51.8743 20.4347 52.2205 20.315C52.5818 20.1803 52.898 19.9932 53.169 19.7537C53.455 19.5142 53.6809 19.2373 53.8465 18.923L54.4788 20.5395C54.1626 21.0484 53.7787 21.4974 53.3271 21.8866C52.8905 22.2757 52.4087 22.5826 51.8818 22.8071C51.3699 23.0316 50.8279 23.1439 50.2559 23.1439Z" fill="white"/>
<path d="M59.7722 22.9194V6.30516H63.408V22.9194H59.7722Z" fill="white"/>
<path d="M66.834 22.9194V10.9975H70.4698V22.9194H66.834ZM68.6632 8.64013C67.9706 8.64013 67.4287 8.48297 67.0372 8.16865C66.6609 7.83935 66.4727 7.37535 66.4727 6.77664C66.4727 6.22284 66.6684 5.77381 67.0598 5.42955C67.4513 5.08529 67.9857 4.91316 68.6632 4.91316C69.3256 4.91316 69.845 5.07781 70.2214 5.4071C70.6128 5.72142 70.8085 6.17793 70.8085 6.77664C70.8085 7.33045 70.6128 7.77948 70.2214 8.12374C69.845 8.468 69.3256 8.64013 68.6632 8.64013Z" fill="white"/>
<path d="M77.9285 23.1439C76.7843 23.1439 75.7606 22.9643 74.8573 22.605C73.954 22.2308 73.2314 21.7219 72.6894 21.0783L74.9025 19.1924C75.3692 19.6564 75.8961 20.0006 76.4832 20.2252C77.0704 20.4347 77.6274 20.5395 78.1543 20.5395C78.35 20.5395 78.5232 20.517 78.6737 20.4721C78.8243 20.4272 78.9522 20.3674 79.0576 20.2925C79.1781 20.2027 79.2684 20.1054 79.3286 20.0006C79.3888 19.8809 79.4189 19.7462 79.4189 19.5965C79.4189 19.2972 79.291 19.0726 79.035 18.923C78.9146 18.8481 78.6963 18.7583 78.3802 18.6535C78.064 18.5338 77.6575 18.4141 77.1607 18.2943C76.4531 18.1147 75.8359 17.8977 75.3089 17.6432C74.7971 17.3888 74.3755 17.0969 74.0443 16.7676C73.7432 16.4683 73.5099 16.124 73.3443 15.7348C73.1937 15.3457 73.1184 14.9116 73.1184 14.4326C73.1184 13.6992 73.3367 13.0556 73.7733 12.5018C74.225 11.948 74.8121 11.5214 75.5348 11.2221C76.2574 10.9077 77.0403 10.7506 77.8833 10.7506C78.5458 10.7506 79.1705 10.8254 79.7577 10.9751C80.3599 11.1248 80.9169 11.3343 81.4288 11.6037C81.9557 11.8732 82.4224 12.195 82.8289 12.5692L80.9094 14.7021C80.6535 14.4476 80.3523 14.2231 80.0061 14.0285C79.6598 13.819 79.3136 13.6543 78.9673 13.5346C78.621 13.3999 78.2973 13.3325 77.9962 13.3325C77.7704 13.3325 77.5672 13.355 77.3865 13.3999C77.2209 13.4298 77.0779 13.4897 76.9575 13.5795C76.8521 13.6543 76.7693 13.7516 76.7091 13.8714C76.6488 13.9761 76.6187 14.0959 76.6187 14.2306C76.6187 14.3952 76.6564 14.5449 76.7316 14.6796C76.822 14.7994 76.9424 14.9116 77.0929 15.0164C77.2284 15.0912 77.4618 15.1885 77.793 15.3083C78.1393 15.428 78.5909 15.5627 79.1479 15.7124C79.8555 15.907 80.4577 16.1315 80.9546 16.3859C81.4664 16.6254 81.8729 16.9098 82.174 17.2391C82.4299 17.4935 82.6106 17.7929 82.716 18.1372C82.8364 18.4665 82.8966 18.8257 82.8966 19.2148C82.8966 19.9782 82.6783 20.6592 82.2417 21.2579C81.8202 21.8417 81.2331 22.3057 80.4803 22.6499C79.7426 22.9792 78.892 23.1439 77.9285 23.1439Z" fill="white"/>
<path d="M86.0608 22.9194V7.98903H89.6966V22.9194H86.0608ZM83.9381 14.1632V10.9975H92V14.1632H83.9381Z" fill="white"/>
</svg>
